<?xml version="1.0" encoding="UTF-8" standalone="no"?>
<!-- Created with Inkscape (http://www.inkscape.org/) -->

<svg
   xmlns:dc="http://purl.org/dc/elements/1.1/"
   xmlns:cc="http://creativecommons.org/ns#"
   xmlns:rdf="http://www.w3.org/1999/02/22-rdf-syntax-ns#"
   xmlns:svg="http://www.w3.org/2000/svg"
   xmlns="http://www.w3.org/2000/svg"
   xmlns:sodipodi="http://sodipodi.sourceforge.net/DTD/sodipodi-0.dtd"
   xmlns:inkscape="http://www.inkscape.org/namespaces/inkscape"
   width="163.61719"
   height="52.875"
   id="svg2"
   version="1.1"
   inkscape:version="0.48.4 r9939"
   sodipodi:docname="hugops.svg">
  <defs
     id="defs4" />
  <sodipodi:namedview
     id="base"
     pagecolor="#ffffff"
     bordercolor="#666666"
     borderopacity="1.0"
     inkscape:pageopacity="0.0"
     inkscape:pageshadow="2"
     inkscape:zoom="1.4"
     inkscape:cx="295.0173"
     inkscape:cy="-31.19087"
     inkscape:document-units="px"
     inkscape:current-layer="layer1"
     showgrid="false"
     fit-margin-top="8"
     fit-margin-left="8"
     fit-margin-right="8"
     fit-margin-bottom="8"
     inkscape:window-width="1685"
     inkscape:window-height="840"
     inkscape:window-x="636"
     inkscape:window-y="417"
     inkscape:window-maximized="0" />
  <metadata
     id="metadata7">
    <rdf:RDF>
      <cc:Work
         rdf:about="">
        <dc:format>image/svg+xml</dc:format>
        <dc:type
           rdf:resource="http://purl.org/dc/dcmitype/StillImage" />
        <dc:title />
      </cc:Work>
    </rdf:RDF>
  </metadata>
  <g
     inkscape:label="Layer 1"
     inkscape:groupmode="layer"
     id="layer1"
     transform="translate(-87.125557,-448.29633)">
    <g
       style="font-size:40px;font-style:normal;font-weight:normal;line-height:125%;letter-spacing:0px;word-spacing:0px;fill:#000000;fill-opacity:1;stroke:none;font-family:Sans"
       id="text2985">
      <path
         d="m 95.125557,471.04242 3.085937,0 -0.566406,4.16016 -2.519531,0 0,5.41015 1.757812,0 -0.996093,6.75781 3.671875,0 1.015629,-6.75781 3.59375,0 -1.03516,6.75781 3.67187,0 1.03516,-6.75781 3.76953,0 0,-5.41015 -3.04687,0 0.5664,-4.16016 2.48047,0 0,-5.39063 -1.79687,0 1.03515,-6.93359 -3.6914,0 -1.03516,6.93359 -3.51562,0 1.03515,-6.93359 -3.671873,0 -1.035156,6.93359 -3.808594,0 0,5.39063 m 11.601563,0.95703 c -1e-5,0.96356 -0.57293,1.9271 -1.71875,2.89063 -0.85939,0.69011 -1.86199,1.30209 -3.00781,1.83593 -10e-6,-0.1302 0.007,-0.24087 0.0195,-0.33203 0.013,-0.0911 0.0195,-0.1953 0.0195,-0.3125 -1e-5,-0.55988 -0.16928,-1.04816 -0.50781,-1.46484 -0.19532,-0.1953 -0.36459,-0.37108 -0.50782,-0.52735 -0.14323,-0.15623 -0.29297,-0.33201 -0.44921,-0.52734 -0.35157,-0.45571 -0.52735,-0.93097 -0.52735,-1.42578 0,-0.5078 0.16927,-0.91795 0.50781,-1.23047 0.35156,-0.3255 0.76823,-0.48826 1.25,-0.48828 0.3776,2e-5 0.69661,0.0912 0.95704,0.27344 0.35155,0.15626 0.56639,0.41017 0.64453,0.76172 0.32551,-0.69009 0.84634,-1.03514 1.5625,-1.03516 0.45571,2e-5 0.86587,0.14324 1.23047,0.42969 0.35155,0.32553 0.52733,0.70965 0.52734,1.15234"
         style="fill:#d40000"
         id="path2988" />
      <path
         d="m 123.36774,475.57367 0,11.07422 -8.96484,0 0,-29.80469 8.96484,0 0,10.91797 4.60938,0 0,-10.91797 8.94531,0 0,29.80469 -8.94531,0 0,-11.07422 -4.60938,0"
         style="fill:#ff6600"
         id="path2990" />
      <path
         d="m 151.10212,463.17133 8.22266,0 0,23.47656 -7.8711,0 0,-4.1211 c -0.8073,1.47136 -1.65365,2.55209 -2.53906,3.24219 -0.87241,0.69011 -1.89454,1.03516 -3.06641,1.03516 -0.98959,0 -1.90104,-0.29297 -2.73437,-0.87891 -0.83334,-0.58593 -1.45834,-1.35416 -1.875,-2.30469 -0.40365,-0.95051 -0.65756,-1.95312 -0.76172,-3.00781 -0.0912,-1.0677 -0.13672,-3.16405 -0.13672,-6.28906 l 0,-11.15234 7.75391,0 0,11.5625 c -1e-5,1.51042 0.0716,2.60417 0.21484,3.28125 0.14322,0.66407 0.59244,0.9961 1.34766,0.99609 0.39061,1e-5 0.72915,-0.16926 1.01562,-0.50781 0.28645,-0.35156 0.42968,-0.59895 0.42969,-0.74219 l 0,-14.58984"
         style="fill:#ff6600"
         id="path2992" />
      <path
         d="m 172.48884,463.17133 c -2.69532,2e-5 -4.57683,0.10419 -5.64453,0.3125 -0.96355,0.22137 -1.80339,0.66408 -2.51953,1.32812 -0.69011,0.66408 -1.25001,1.65367 -1.67969,2.96875 -0.42969,1.3021 -0.64453,2.70835 -0.64453,4.21875 0,2.72137 0.57291,4.89584 1.71875,6.52344 1.18489,1.65365 2.72135,2.48047 4.60937,2.48047 1.41926,0 2.59114,-0.42317 3.51563,-1.26953 l 0,0.39062 c -1e-5,1.14584 -0.26043,1.97266 -0.78125,2.48047 -0.52085,0.50782 -1.35418,0.76172 -2.5,0.76172 -2.34376,0 -4.51824,-1.39974 -6.52344,-4.19922 l 0,10.60547 c 2.59114,2.26562 5.6901,3.39843 9.29687,3.39844 1.83593,-1e-5 3.30077,-0.28647 4.39454,-0.85938 1.09373,-0.57292 1.97264,-1.4323 2.63671,-2.57812 0.66405,-1.09376 1.11327,-2.29167 1.34766,-3.59375 0.24738,-1.31511 0.37108,-3.41146 0.37109,-6.28907 l 0,-16.67968 -7.59765,0 m 3.16406,7.67578 c -10e-6,1.25001 -0.77475,2.51954 -2.32422,3.80859 -0.53386,0.44272 -1.13282,0.87241 -1.79687,1.28906 -0.66408,0.41668 -1.39975,0.81382 -2.20703,1.19141 0.026,-0.16926 0.0456,-0.32551 0.0586,-0.46875 0.013,-0.14322 0.0195,-0.27994 0.0195,-0.41016 -10e-6,-0.70311 -0.24089,-1.36066 -0.72266,-1.97265 -0.20834,-0.23437 -0.42318,-0.46223 -0.64453,-0.6836 -0.20834,-0.23436 -0.41667,-0.47524 -0.625,-0.72265 -0.45573,-0.61197 -0.6836,-1.23697 -0.68359,-1.875 -1e-5,-0.66405 0.22786,-1.22394 0.68359,-1.67969 0.50781,-0.42967 1.0677,-0.64451 1.67969,-0.64453 0.48176,2e-5 0.90494,0.12371 1.26953,0.37109 0.42968,0.23439 0.70963,0.57945 0.83985,1.03516 0.45571,-0.93748 1.15233,-1.40623 2.08984,-1.40625 0.63801,2e-5 1.18488,0.20184 1.64062,0.60547 0.48176,0.40366 0.72265,0.92449 0.72266,1.5625"
         style="fill:#ff6600"
         id="path2994" />
      <path
         d="m 193.50446,456.33539 c -1.65365,-0.026 -3.13803,0.39065 -4.45312,1.25 -1.31511,0.84638 -2.4349,1.97919 -3.35938,3.39844 -0.92448,1.40627 -1.64062,3.00132 -2.14843,4.78515 -0.50782,1.78388 -0.76172,3.56773 -0.76172,5.35156 0,5.01304 1.02864,8.9323 3.08593,11.75782 2.08333,2.77344 4.44661,4.16015 7.08985,4.16015 3.11196,0 5.65753,-1.42578 7.63672,-4.27734 1.96612,-2.90364 2.94919,-6.66015 2.94922,-11.26953 -3e-5,-4.14061 -1.00914,-7.7018 -3.02735,-10.6836 -2.00522,-2.98174 -4.34246,-4.47262 -7.01172,-4.47265 m 4.19922,12.7539 c -1e-5,1.25002 -0.76824,2.51304 -2.30469,3.78907 -0.53386,0.45574 -1.13933,0.89194 -1.8164,1.30859 -0.66408,0.41668 -1.39324,0.8073 -2.1875,1.17188 0.026,-0.15624 0.0456,-0.30598 0.0586,-0.44922 0.013,-0.14322 0.0195,-0.28645 0.0195,-0.42969 -1e-5,-0.69009 -0.24089,-1.34113 -0.72265,-1.95313 -0.20835,-0.23436 -0.42319,-0.46222 -0.64453,-0.68359 -0.20835,-0.23436 -0.41668,-0.47524 -0.625,-0.72266 -0.45574,-0.61196 -0.68361,-1.23696 -0.6836,-1.875 -1e-5,-0.66404 0.22786,-1.22394 0.6836,-1.67968 0.49478,-0.42967 1.05467,-0.64451 1.67968,-0.64453 0.46874,2e-5 0.89192,0.12371 1.26953,0.37109 0.42968,0.23439 0.70963,0.57945 0.83985,1.03516 0.45572,-0.93749 1.15233,-1.40623 2.08984,-1.40625 0.63801,2e-5 1.18488,0.20184 1.64063,0.60546 0.46873,0.40367 0.70311,0.9245 0.70312,1.5625"
         style="fill:#ffcc00"
         id="path2996" />
      <path
         d="m 206.31696,463.17133 0,30 8.24219,0 0,-7.36329 c 1.0677,0.63803 2.14843,0.95704 3.24219,0.95704 2.23957,0 4.08852,-1.13282 5.54687,-3.39844 1.47134,-2.26562 2.20701,-5.21484 2.20703,-8.84766 -2e-5,-3.29425 -0.68361,-6.04816 -2.05078,-8.26172 -1.35418,-2.18747 -3.04689,-3.28122 -5.07812,-3.28125 -1.35418,3e-5 -2.64324,0.65107 -3.86719,1.95313 l 0,-1.75781 -8.24219,0 m 14.47266,10.19531 c -2e-5,1.25001 -0.77476,2.51954 -2.32422,3.80859 -0.53387,0.44272 -1.13282,0.87241 -1.79687,1.28906 -0.66408,0.41668 -1.39324,0.81381 -2.1875,1.19141 0.026,-0.16926 0.0456,-0.32551 0.0586,-0.46875 0.013,-0.14322 0.0195,-0.27994 0.0195,-0.41016 -10e-6,-0.70311 -0.24089,-1.36066 -0.72266,-1.97265 -0.22136,-0.23437 -0.4362,-0.46223 -0.64453,-0.6836 -0.20834,-0.23436 -0.42318,-0.46873 -0.64453,-0.70312 -0.45573,-0.62499 -0.6836,-1.2565 -0.68359,-1.89453 -1e-5,-0.66405 0.22786,-1.22395 0.68359,-1.67969 0.50781,-0.42967 1.0677,-0.64452 1.67969,-0.64453 0.48176,1e-5 0.91145,0.12371 1.28906,0.37109 0.42968,0.23439 0.70963,0.57944 0.83985,1.03516 0.45571,-0.93749 1.14582,-1.40624 2.07031,-1.40625 0.638,1e-5 1.18488,0.20184 1.64062,0.60547 0.48176,0.40366 0.72264,0.92449 0.72266,1.5625"
         style="fill:#ffcc00"
         id="path2998" />
      <path
         d="m 228.62165,477.76117 c 0.54687,1.09376 1.22396,1.96615 2.03125,2.61719 0.82031,0.63802 1.60156,0.95703 2.34375,0.95703 1.0677,0 1.60156,-0.57291 1.60156,-1.71875 0,-0.45572 -0.11719,-0.85286 -0.35156,-1.19141 -0.23438,-0.35155 -0.58594,-0.62499 -1.05469,-0.82031 l -1.83593,-0.83984 c -1.28907,-0.57291 -2.27865,-1.46484 -2.96875,-2.67579 -0.69011,-1.21092 -1.03516,-2.66274 -1.03516,-4.35546 0,-2.25259 0.70963,-3.99738 2.12891,-5.23438 1.41926,-1.23696 3.41796,-1.85544 5.99609,-1.85547 2.51301,3e-5 4.79165,0.6706 6.83594,2.01172 l -1.97266,5.99609 c -1.28907,-1.70571 -2.52605,-2.55857 -3.71094,-2.55859 -0.41667,2e-5 -0.75521,0.13023 -1.01562,0.39063 -0.26043,0.24741 -0.39064,0.57944 -0.39063,0.99609 -1e-5,0.59897 0.18229,1.07423 0.54688,1.42578 0.36457,0.35158 1.03514,0.70314 2.01172,1.05469 2.09634,0.7422 3.44399,1.77084 4.04297,3.08594 0.61196,1.31511 0.91795,2.71485 0.91796,4.19921 -1e-5,2.35678 -0.66407,4.23178 -1.99218,5.625 -1.32814,1.39323 -3.11199,2.08985 -5.35157,2.08985 -1.23698,0 -2.64323,-0.22787 -4.21875,-0.6836 -1.5625,-0.46874 -3.02734,-1.10676 -4.39453,-1.91406 l 1.83594,-6.60156"
         style="fill:#ffcc00"
         id="path3000" />
    </g>
  </g>
</svg>
