<?xml version="1.0" encoding="UTF-8" standalone="no"?>
<!-- Created with Inkscape (http://www.inkscape.org/) -->

<svg
   xmlns:dc="http://purl.org/dc/elements/1.1/"
   xmlns:cc="http://creativecommons.org/ns#"
   xmlns:rdf="http://www.w3.org/1999/02/22-rdf-syntax-ns#"
   xmlns:svg="http://www.w3.org/2000/svg"
   xmlns="http://www.w3.org/2000/svg"
   xmlns:sodipodi="http://sodipodi.sourceforge.net/DTD/sodipodi-0.dtd"
   xmlns:inkscape="http://www.inkscape.org/namespaces/inkscape"
   id="svg2"
   version="1.1"
   inkscape:version="0.48.4 r9939"
   width="506.27625"
   height="765"
   xml:space="preserve"
   sodipodi:docname="logstash.ai"><metadata
     id="metadata8"><rdf:RDF><cc:Work
         rdf:about=""><dc:format>image/svg+xml</dc:format><dc:type
           rdf:resource="http://purl.org/dc/dcmitype/StillImage" /><dc:title></dc:title></cc:Work></rdf:RDF></metadata><defs
     id="defs6"><clipPath
       clipPathUnits="userSpaceOnUse"
       id="clipPath16"><path
         d="m 129.328,547.181 c -0.291,-0.794 -0.722,-1.583 -1.054,-2.37 l 0,0 c -0.855,-2.022 -1.922,-4.124 -2.348,-6.357 l 0,0 12.124,-13.578 c 9.898,-12.727 28.282,-14.611 41.951,-21.682 l 0,0 c 5.656,-2.829 11.313,-6.599 17.913,-8.485 l 0,0 c 7.541,-1.885 16.025,-1.415 23.567,-1.885 l 0,0 c 14.141,-0.942 28.282,-2.356 42.422,-2.356 l 0,0 c 18.383,0 34.881,-0.472 52.323,4.713 l 0,0 c 6.479,1.85 13.935,4.51 20.714,4.588 l 0,0 c 5.626,0.067 7.932,-0.37 12.63,3.651 l 0,0 c -10.113,5.306 -20.355,11.761 -31.17,15.563 l 0,0 c -9.737,3.424 -20.805,7.262 -33.312,12.146 l 0,0 c -11.142,4.351 -22.152,5.795 -33.651,8.552 l 0,0 c -12.953,3.106 -25.874,2.142 -38.954,3.319 l 0,0 c -10.222,0.919 -20.23,1.898 -30.391,3.8 l 0,0 c -9.773,1.83 -19.694,2.855 -29.625,3.256 l 0,0 c -2.007,0.08 -4.015,0.041 -6.022,0.002 l 0,0 c -2.07,-0.039 -4.14,-0.079 -6.208,0.012 l 0,0 c -1.722,0.075 -3.423,0.441 -5.133,0.286 l 0,0 c -1.398,-0.127 -2.805,-0.029 -4.172,0.312 l 0,0 c -0.377,-1.167 -1.166,-2.297 -1.604,-3.487"
         id="path18" /></clipPath><linearGradient
       x1="0"
       y1="0"
       x2="1"
       y2="0"
       gradientUnits="userSpaceOnUse"
       gradientTransform="matrix(223.64404,0,0,-223.64404,125.92627,520.56201)"
       spreadMethod="pad"
       id="linearGradient24"><stop
         style="stop-opacity:1;stop-color:#9e7a30"
         offset="0"
         id="stop26" /><stop
         style="stop-opacity:1;stop-color:#664f1f"
         offset="1"
         id="stop28" /></linearGradient><clipPath
       clipPathUnits="userSpaceOnUse"
       id="clipPath36"><path
         d="m 0,612 405.021,0 0,-612 L 0,0 0,612 z"
         id="path38" /></clipPath><clipPath
       clipPathUnits="userSpaceOnUse"
       id="clipPath44"><path
         d="m 106.077,125.771 271.273,0 0,-78.4487 -271.273,0 0,78.4487 z"
         id="path46" /></clipPath><clipPath
       clipPathUnits="userSpaceOnUse"
       id="clipPath48"><path
         d="m 106.128,72.968 c 2.035,-20.316 64.39,-30.708 139.269,-23.209 74.883,7.499 133.936,30.05 131.902,50.367 -2.034,20.315 -64.388,30.709 -139.27,23.209 -74.88,-7.498 -133.935,-30.051 -131.901,-50.367"
         id="path50" /></clipPath><radialGradient
       fx="0"
       fy="0"
       cx="0"
       cy="0"
       r="1"
       gradientUnits="userSpaceOnUse"
       gradientTransform="matrix(-135.58829,-13.584274,3.6840973,-36.787415,241.71484,86.547852)"
       spreadMethod="pad"
       id="radialGradient52"><stop
         style="stop-opacity:1;stop-color:#000000"
         offset="0"
         id="stop54" /><stop
         style="stop-opacity:1;stop-color:#ffffff"
         offset="1"
         id="stop56" /></radialGradient><clipPath
       clipPathUnits="userSpaceOnUse"
       id="clipPath76"><path
         d="m 105.935,180.542 c -1.775,-6.331 -2.902,-12.751 -4.756,-19.098 l 0,0 c -1.609,-5.508 -1.965,-10.335 -2.516,-16.026 l 0,0 c -0.447,-4.623 -2.261,-11.277 -0.697,-15.656 l 0,0 c 5.231,-0.115 10.57,-3.04 15.558,-4.482 l 0,0 c 0.55,-0.159 4.054,10.317 4.786,11.625 l 0,0 c 2.61,4.658 7.563,9.022 11.35,12.757 l 0,0 c 6.572,6.483 11.644,8.871 14.275,18.283 l 0,0 -29.697,41.656 c 1.85,-8.43 -6.01,-20.88 -8.303,-29.059"
         id="path78" /></clipPath><linearGradient
       x1="0"
       y1="0"
       x2="1"
       y2="0"
       gradientUnits="userSpaceOnUse"
       gradientTransform="matrix(-52.864181,-19.290863,19.290863,-52.864181,140.56738,177.17285)"
       spreadMethod="pad"
       id="linearGradient84"><stop
         style="stop-opacity:1;stop-color:#9e7a30"
         offset="0"
         id="stop86" /><stop
         style="stop-opacity:1;stop-color:#664f1f"
         offset="1"
         id="stop88" /></linearGradient><clipPath
       clipPathUnits="userSpaceOnUse"
       id="clipPath96"><path
         d="m 0,612 405.021,0 0,-612 L 0,0 0,612 z"
         id="path98" /></clipPath><clipPath
       clipPathUnits="userSpaceOnUse"
       id="clipPath104"><path
         d="m 101.639,188.969 29.777,0 0,-50.778 -29.777,0 0,50.778 z"
         id="path106" /></clipPath><linearGradient
       x1="0"
       y1="0"
       x2="1"
       y2="0"
       gradientUnits="userSpaceOnUse"
       gradientTransform="matrix(34.248718,-46.890198,46.890198,34.248718,291.66211,219.41992)"
       spreadMethod="pad"
       id="linearGradient132"><stop
         style="stop-opacity:1;stop-color:#9e7a30"
         offset="0"
         id="stop134" /><stop
         style="stop-opacity:1;stop-color:#664f1f"
         offset="1"
         id="stop136" /></linearGradient><clipPath
       clipPathUnits="userSpaceOnUse"
       id="clipPath144"><path
         d="m 0,612 405.021,0 0,-612 L 0,0 0,612 z"
         id="path146" /></clipPath><clipPath
       clipPathUnits="userSpaceOnUse"
       id="clipPath152"><path
         d="m 297.376,245.061 67.585,0 0,-60.264 -67.585,0 0,60.264 z"
         id="path154" /></clipPath><linearGradient
       x1="0"
       y1="0"
       x2="1"
       y2="0"
       gradientUnits="userSpaceOnUse"
       gradientTransform="matrix(209.94244,455.0473,455.0473,-209.94244,114.0249,65.869141)"
       spreadMethod="pad"
       id="linearGradient180"><stop
         style="stop-opacity:1;stop-color:#664f1f"
         offset="0"
         id="stop182" /><stop
         style="stop-opacity:1;stop-color:#9e7a30"
         offset="0.0903625"
         id="stop184" /><stop
         style="stop-opacity:1;stop-color:#9e7a30"
         offset="0.0903625"
         id="stop186" /><stop
         style="stop-opacity:1;stop-color:#664f1f"
         offset="0.867477"
         id="stop188" /><stop
         style="stop-opacity:1;stop-color:#664f1f"
         offset="0.867477"
         id="stop190" /><stop
         style="stop-opacity:1;stop-color:#664f1f"
         offset="1"
         id="stop192" /></linearGradient><clipPath
       clipPathUnits="userSpaceOnUse"
       id="clipPath200"><path
         d="m 0,612 405.021,0 0,-612 L 0,0 0,612 z"
         id="path202" /></clipPath><linearGradient
       x1="0"
       y1="0"
       x2="1"
       y2="0"
       gradientUnits="userSpaceOnUse"
       gradientTransform="matrix(-30.093445,-27.272522,-27.272522,30.093445,221.2168,507.78906)"
       spreadMethod="pad"
       id="linearGradient220"><stop
         style="stop-opacity:1;stop-color:#e8cf89"
         offset="0"
         id="stop222" /><stop
         style="stop-opacity:1;stop-color:#fff3d4"
         offset="1"
         id="stop224" /></linearGradient><clipPath
       clipPathUnits="userSpaceOnUse"
       id="clipPath232"><path
         d="m 0,612 405.021,0 0,-612 L 0,0 0,612 z"
         id="path234" /></clipPath><clipPath
       clipPathUnits="userSpaceOnUse"
       id="clipPath240"><path
         d="m 69.6646,546.899 304.0434,0 0,-540.87361 -304.0434,0 0,540.87361 z"
         id="path242" /></clipPath><clipPath
       clipPathUnits="userSpaceOnUse"
       id="clipPath244"><path
         d="m 300.216,477.144 c -11.392,-5.214 -30.76,-3.724 -43.292,-3.724 -15.948,0 -30.759,1.489 -47.849,2.978 -13.671,0.746 -28.481,-0.744 -38.734,5.958 -9.113,6.703 -15.948,14.894 -21.645,22.341 -7.975,9.68 -12.532,19.362 -17.088,29.042 -0.822,3.228 -1.648,8.006 -2.901,11.816 -0.113,0.006 -0.228,0.015 -0.342,0.021 -12.73,-35.64 -21.658,-75.622 -27.291,-114.042 -5.336,-36.385 -6.569,-73.724 -3.36,-110.239 3.836,-43.648 3.284,-89.831 14.583,-132.944 10.968,-41.861 28.99,-84.078 46.733,-125.005 32.888,-1.001 66.833,2.045 98.424,7.981 15.627,2.937 31.713,6.002 45.562,11.971 20.731,8.932 24.403,11.282 34.451,18.246 -37.044,60.473 -37.047,122.38 -28.136,186.449 7.973,57.34 18.997,113.515 28.109,170.111 2.28,11.17 6.068,22.019 9.486,33.189 0.991,3.245 2.846,7.054 2.553,10.445 -5.137,-3.016 -10.707,-5.872 -17.926,-8.884 -10.938,-4.565 -20.647,-10.817 -31.337,-15.71"
         id="path246" /></clipPath><clipPath
       clipPathUnits="userSpaceOnUse"
       id="clipPath248"><path
         d="m 69.6646,313.81 304.0434,0 0,-134.963 -304.0434,0 0,134.963 z"
         id="path250" /></clipPath><clipPath
       clipPathUnits="userSpaceOnUse"
       id="clipPath384"><path
         d="m 140.063,534.975 c 4.26,-9.048 8.519,-18.097 15.973,-27.146 l 0,0 c 5.325,-6.962 11.713,-14.618 20.231,-20.883 l 0,0 c 9.586,-6.265 23.43,-4.874 36.208,-5.569 l 0,0 c 15.972,-1.392 29.817,-2.784 44.725,-2.784 l 0,0 c 11.713,0 29.818,-1.393 40.465,3.479 l 0,0 c 9.995,4.575 19.068,10.419 29.292,14.686 l 0,0 c 5.431,2.264 9.855,4.437 13.878,6.666 l 0,0 c -7.223,0.639 -11.738,3.265 -18.232,5.982 l 0,0 c -2.738,1.146 -5.306,1.869 -7.964,3.517 l 0,0 c -9.636,5.972 -21.252,7.807 -32.061,11.055 l 0,0 c -7.045,2.118 -14.415,3.689 -21.614,5.44 l 0,0 c -7.2,1.751 -14.436,3.493 -21.691,4.718 l 0,0 c -6.682,1.13 -13.7,2.377 -20.559,2.377 l 0,0 c -6.869,0 -13.302,0.555 -19.84,2.155 l 0,0 c -5.531,1.354 -11.532,2.511 -17.109,3.054 l 0,0 c -3.36,0.326 -6.738,0.031 -10.108,-0.264 l 0,0 c -3.886,-0.341 -7.76,-0.681 -11.578,-0.067 l 0,0 c -2.12,0.341 -22.125,2.624 -22.376,3.482 l 0,0 c 0.977,-3.336 1.67,-7.196 2.36,-9.898"
         id="path386" /></clipPath><clipPath
       clipPathUnits="userSpaceOnUse"
       id="clipPath396"><path
         d="m 0,612 405.021,0 0,-612 L 0,0 0,612 z"
         id="path398" /></clipPath><linearGradient
       x1="0"
       y1="0"
       x2="1"
       y2="0"
       gradientUnits="userSpaceOnUse"
       gradientTransform="matrix(-3.7070923,17.112259,17.112259,3.7070923,277.5459,445.18945)"
       spreadMethod="pad"
       id="linearGradient416"><stop
         style="stop-opacity:1;stop-color:#4d3b17"
         offset="0"
         id="stop418" /><stop
         style="stop-opacity:1;stop-color:#0f0c04"
         offset="1"
         id="stop420" /></linearGradient><linearGradient
       x1="0"
       y1="0"
       x2="1"
       y2="0"
       gradientUnits="userSpaceOnUse"
       gradientTransform="matrix(-1.4311676,49.330749,49.330749,1.4311676,134.29932,245.79687)"
       spreadMethod="pad"
       id="linearGradient436"><stop
         style="stop-opacity:1;stop-color:#000000"
         offset="0"
         id="stop438" /><stop
         style="stop-opacity:1;stop-color:#362910"
         offset="0.993973"
         id="stop440" /><stop
         style="stop-opacity:1;stop-color:#362910"
         offset="1"
         id="stop442" /></linearGradient><linearGradient
       x1="0"
       y1="0"
       x2="1"
       y2="0"
       gradientUnits="userSpaceOnUse"
       gradientTransform="matrix(-1.4311829,49.331467,49.331467,1.4311829,293.08008,250.40039)"
       spreadMethod="pad"
       id="linearGradient458"><stop
         style="stop-opacity:1;stop-color:#000000"
         offset="0"
         id="stop460" /><stop
         style="stop-opacity:1;stop-color:#362910"
         offset="0.993973"
         id="stop462" /><stop
         style="stop-opacity:1;stop-color:#362910"
         offset="1"
         id="stop464" /></linearGradient><clipPath
       clipPathUnits="userSpaceOnUse"
       id="clipPath472"><path
         d="m 0,612 405.021,0 0,-612 L 0,0 0,612 z"
         id="path474" /></clipPath><linearGradient
       x1="0"
       y1="0"
       x2="1"
       y2="0"
       gradientUnits="userSpaceOnUse"
       gradientTransform="matrix(7.2002411,18.720825,18.720825,-7.2002411,148.72705,390.16699)"
       spreadMethod="pad"
       id="linearGradient492"><stop
         style="stop-opacity:1;stop-color:#ffffff"
         offset="0"
         id="stop494" /><stop
         style="stop-opacity:1;stop-color:#d1d1d1"
         offset="1"
         id="stop496" /></linearGradient><clipPath
       clipPathUnits="userSpaceOnUse"
       id="clipPath504"><path
         d="m 0,612 405.021,0 0,-612 L 0,0 0,612 z"
         id="path506" /></clipPath><linearGradient
       x1="0"
       y1="0"
       x2="1"
       y2="0"
       gradientUnits="userSpaceOnUse"
       gradientTransform="matrix(2.1610107,10.800674,10.800674,-2.1610107,275.80762,371.13867)"
       spreadMethod="pad"
       id="linearGradient524"><stop
         style="stop-opacity:1;stop-color:#ffffff"
         offset="0"
         id="stop526" /><stop
         style="stop-opacity:1;stop-color:#d1d1d1"
         offset="1"
         id="stop528" /></linearGradient><clipPath
       clipPathUnits="userSpaceOnUse"
       id="clipPath536"><path
         d="m 0,612 405.021,0 0,-612 L 0,0 0,612 z"
         id="path538" /></clipPath><clipPath
       clipPathUnits="userSpaceOnUse"
       id="clipPath548"><path
         d="m 146.763,420.29 18,0 0,-23.755 -18,0 0,23.755 z"
         id="path550" /></clipPath><clipPath
       clipPathUnits="userSpaceOnUse"
       id="clipPath576"><path
         d="m 278.421,389.601 12.439,0 0,-16.416 -12.439,0 0,16.416 z"
         id="path578" /></clipPath></defs><sodipodi:namedview
     pagecolor="#ffffff"
     bordercolor="#666666"
     borderopacity="1"
     objecttolerance="10"
     gridtolerance="10"
     guidetolerance="10"
     inkscape:pageopacity="0"
     inkscape:pageshadow="2"
     inkscape:window-width="1707"
     inkscape:window-height="961"
     id="namedview4"
     showgrid="false"
     inkscape:zoom="2.4679739"
     inkscape:cx="259.62117"
     inkscape:cy="301.46186"
     inkscape:window-x="344"
     inkscape:window-y="298"
     inkscape:window-maximized="0"
     inkscape:current-layer="g10" /><g
     id="g10"
     inkscape:groupmode="layer"
     inkscape:label="logstash"
     transform="matrix(1.25,0,0,-1.25,0,765)"><g
       id="g12"><g
         id="g14"
         clip-path="url(#clipPath16)"><g
           id="g20"><g
             id="g22"><path
               d="m 129.328,547.181 c -0.291,-0.794 -0.722,-1.583 -1.054,-2.37 l 0,0 c -0.855,-2.022 -1.922,-4.124 -2.348,-6.357 l 0,0 12.124,-13.578 c 9.898,-12.727 28.282,-14.611 41.951,-21.682 l 0,0 c 5.656,-2.829 11.313,-6.599 17.913,-8.485 l 0,0 c 7.541,-1.885 16.025,-1.415 23.567,-1.885 l 0,0 c 14.141,-0.942 28.282,-2.356 42.422,-2.356 l 0,0 c 18.383,0 34.881,-0.472 52.323,4.713 l 0,0 c 6.479,1.85 13.935,4.51 20.714,4.588 l 0,0 c 5.626,0.067 7.932,-0.37 12.63,3.651 l 0,0 c -10.113,5.306 -20.355,11.761 -31.17,15.563 l 0,0 c -9.737,3.424 -20.805,7.262 -33.312,12.146 l 0,0 c -11.142,4.351 -22.152,5.795 -33.651,8.552 l 0,0 c -12.953,3.106 -25.874,2.142 -38.954,3.319 l 0,0 c -10.222,0.919 -20.23,1.898 -30.391,3.8 l 0,0 c -9.773,1.83 -19.694,2.855 -29.625,3.256 l 0,0 c -2.007,0.08 -4.015,0.041 -6.022,0.002 l 0,0 c -2.07,-0.039 -4.14,-0.079 -6.208,0.012 l 0,0 c -1.722,0.075 -3.423,0.441 -5.133,0.286 l 0,0 c -1.398,-0.127 -2.805,-0.029 -4.172,0.312 l 0,0 c -0.377,-1.167 -1.166,-2.297 -1.604,-3.487"
               style="fill:url(#linearGradient24);stroke:none"
               id="path30" /></g></g></g></g><g
       id="g32"><g
         id="g34"
         clip-path="url(#clipPath36)"><g
           id="g40"><g
             id="g42" /><g
             id="g58"><g
               clip-path="url(#clipPath44)"
               opacity="0.389999"
               id="g60"><g
                 id="g62"><g
                   clip-path="url(#clipPath48)"
                   id="g64"><g
                     id="g66"><g
                       id="g68"><path
                         d="m 106.128,72.968 c 2.035,-20.316 64.39,-30.708 139.269,-23.209 74.883,7.499 133.936,30.05 131.902,50.367 -2.034,20.315 -64.388,30.709 -139.27,23.209 -74.88,-7.498 -133.935,-30.051 -131.901,-50.367"
                         style="fill:url(#radialGradient52);stroke:none"
                         id="path70" /></g></g></g></g></g></g></g></g></g><g
       id="g168"><g
         id="g170"><g
           id="g176"><g
             id="g178"><path
               d="m 101.075,431.534 c -5.337,-36.384 -6.57,-73.725 -3.36,-110.238 l 0,0 c 3.835,-43.649 3.283,-89.832 14.582,-132.946 l 0,0 c 10.968,-41.86 28.99,-84.077 46.733,-125.004 l 0,0 c 32.888,-1.001 66.833,2.044 98.424,7.981 l 0,0 c 15.627,2.937 31.485,6.562 45.562,11.971 l 0,0 c 13.174,5.062 24.991,11.722 34.451,18.246 l 0,0 c -37.044,60.472 -37.047,122.38 -28.136,186.449 l 0,0 c 7.973,57.341 18.997,113.515 28.11,170.111 l 0,0 c 2.278,11.17 6.067,22.018 9.485,33.189 l 0,0 c 0.991,3.245 2.846,7.054 2.552,10.444 l 0,0 c -5.136,-3.016 -10.705,-5.871 -17.925,-8.883 l 0,0 c -10.938,-4.565 -20.647,-10.817 -31.337,-15.711 l 0,0 c -11.392,-5.213 -30.76,-3.722 -43.292,-3.722 l 0,0 c -15.948,0 -30.759,1.488 -47.849,2.978 l 0,0 c -13.671,0.744 -28.481,-0.744 -38.734,5.958 l 0,0 c -9.113,6.701 -15.949,14.893 -21.645,22.341 l 0,0 c -7.975,9.679 -12.532,19.36 -17.087,29.042 l 0,0 c -0.824,3.227 -1.649,8.004 -2.903,11.815 l 0,0 c -0.112,0.005 -0.227,0.015 -0.341,0.021 l 0,0 c -15.48,-32.898 -21.658,-75.622 -27.29,-114.042"
               style="fill:url(#linearGradient180);stroke:none"
               id="path194" /></g></g></g></g><g
       id="g196"><g
         id="g198"
         clip-path="url(#clipPath200)"><g
           id="g204"
           transform="translate(349.2021,503.207)"><path
             d="m 0,0 c -2.877,-0.125 -5.654,-0.023 -8.367,0.217 -4.023,-2.23 -8.447,-4.402 -13.878,-6.666 -10.224,-4.267 -19.298,-10.111 -29.292,-14.685 -10.647,-4.873 -28.752,-3.48 -40.465,-3.48 -14.908,0 -28.753,1.392 -44.725,2.784 -12.778,0.696 -26.622,-0.696 -36.209,5.569 -8.517,6.264 -14.905,13.921 -20.231,20.883 -7.453,9.049 -11.712,18.097 -15.972,27.146 -0.69,2.702 -1.383,6.563 -2.361,9.899 -3.032,0.307 -6.037,0.549 -8.996,0.681 1.254,-3.81 2.079,-8.588 2.902,-11.816 4.555,-9.68 9.113,-19.362 17.088,-29.042 5.696,-7.447 12.532,-15.638 21.645,-22.341 10.253,-6.702 25.063,-5.212 38.734,-5.958 17.09,-1.489 31.9,-2.978 47.849,-2.978 12.532,0 31.9,-1.49 43.292,3.724 10.69,4.893 20.399,11.145 31.337,15.71 7.219,3.012 12.789,5.868 17.925,8.884 C 0.233,-0.97 0.146,-0.478 0,0"
             style="fill:#423314;fill-opacity:1;fill-rule:nonzero;stroke:none"
             id="path206" /></g></g></g><g
       id="g208"><g
         id="g210"><g
           id="g216"><g
             id="g218"><path
               d="m 140.063,534.975 c 4.26,-9.048 8.519,-18.097 15.973,-27.146 l 0,0 c 5.325,-6.962 11.713,-14.618 20.231,-20.883 l 0,0 c 9.586,-6.265 23.43,-4.874 36.208,-5.569 l 0,0 c 15.972,-1.392 29.817,-2.784 44.725,-2.784 l 0,0 c 11.713,0 29.818,-1.393 40.465,3.479 l 0,0 c 9.995,4.575 19.068,10.419 29.292,14.686 l 0,0 c 5.431,2.264 9.855,4.437 13.878,6.666 l 0,0 c -6.959,0.616 -14.176,5.531 -20.692,8.204 l 0,0 c -11.856,4.862 -24.2,8.259 -36.538,11.777 l 0,0 c -16.498,4.706 -33.182,10.508 -50.387,11.96 l 0,0 c -7.947,0.67 -15.608,1.032 -23.447,2.257 l 0,0 c -6.821,1.068 -13.694,2.439 -20.529,2.836 l 0,0 c -6.365,0.37 -12.702,0.63 -19.058,1.179 l 0,0 c -3.123,0.27 -31.868,1.146 -32.481,3.236 l 0,0 c 0.977,-3.336 1.67,-7.196 2.36,-9.898"
               style="fill:url(#linearGradient220);stroke:none"
               id="path226" /></g></g></g></g><g
       id="g228"><g
         id="g230"
         clip-path="url(#clipPath232)"><g
           id="g236"><g
             id="g238" /><g
             id="g252"><g
               clip-path="url(#clipPath240)"
               opacity="0.539993"
               id="g254"><g
                 id="g256"><g
                   clip-path="url(#clipPath244)"
                   id="g258"><g
                     transform="translate(150.7681,530.4785)"
                     id="g260"><path
                       d="m 0,0 c 0.144,0.589 0.289,1.179 0.433,1.768 0.105,0.428 -1.014,0.741 -1.235,0.422 -5.59,-8.085 -8.705,-18.067 -11.348,-27.447 -2.821,-10.012 -4.85,-20.336 -6.134,-30.656 -2.557,-20.571 -4.376,-41.494 -10.362,-61.406 -2.913,-9.687 -4.567,-18.729 -4.02,-28.857 0.609,-11.233 1.004,-22.564 1.925,-33.767 0.945,-11.5 2.63,-22.975 3.953,-34.439 0.599,-5.193 0.772,-10.565 1.752,-15.692 1.015,-5.31 3.031,-10.426 4.374,-15.657 0.048,-0.186 0.612,-0.29 0.567,-0.071 -0.87,4.208 -2.041,8.344 -2.96,12.54 -1.056,4.826 -0.956,9.906 -1.387,14.811 -1.012,11.534 -3.203,22.929 -4.277,34.469 -1.052,11.303 -0.732,22.643 -1.654,33.951 -0.931,11.413 0.263,21.302 3.657,32.195 6.028,19.349 7.152,39.644 10.833,59.489 1.902,10.25 3.665,20.513 6.259,30.618 2.607,10.155 6.805,19.584 10.057,29.497 C 0.006,1.852 -0.421,1.936 -0.848,2.02 -0.704,1.374 -0.559,0.728 -0.415,0.082 -0.389,-0.035 -0.036,-0.146 0,0"
                       style="fill:#5e491d;fill-opacity:1;fill-rule:nonzero;stroke:none"
                       id="path262" /></g><g
                     transform="translate(148.8564,485.3579)"
                     id="g264"><path
                       d="m 0,0 c 1.2,-16.656 -1.679,-33.035 -4.812,-49.326 -1.516,-7.885 -3.014,-15.787 -4.842,-23.605 -0.969,-4.143 -1.414,-8.474 -1.758,-12.706 -0.33,-4.073 0.346,-8.735 -1.133,-12.56 1.266,0.13 2.533,0.259 3.799,0.389 -1.004,0.352 -1.875,0.508 -2.933,0.565 -0.659,0.035 -2.485,0.169 -2.626,-0.868 -0.929,-6.808 -0.126,-13.864 0.405,-20.675 0.628,-8.053 1.256,-16.111 1.972,-24.158 1.391,-15.635 3.598,-31.182 6.259,-46.648 5.358,-31.149 12.334,-61.823 21.65,-92.037 0.027,-0.087 0.291,-0.131 0.264,-0.034 -8.064,29.647 -15.037,59.611 -19.783,89.978 -2.399,15.356 -3.772,30.928 -4.686,46.437 -0.464,7.874 -0.685,15.726 -0.477,23.612 0.197,7.409 1.13,14.926 0.481,22.327 l -1.859,-1.343 c 0.812,0.048 1.707,-0.042 2.425,0.408 0.315,0.196 0.735,0.524 0.556,0.975 -2.881,7.243 -0.503,17.949 0.104,25.625 0.689,8.711 2.123,17.245 3.656,25.845 2.811,15.772 5.209,31.681 3.866,47.733 C 0.514,0.111 -0.016,0.216 0,0"
                       style="fill:#5e491d;fill-opacity:1;fill-rule:nonzero;stroke:none"
                       id="path266" /></g><g
                     transform="translate(154.9707,406.0811)"
                     id="g268"><path
                       d="m 0,0 c 1.876,-0.06 -0.735,-23.777 -0.91,-25.513 -1.104,-10.922 -1.915,-21.713 -2.201,-32.696 -0.542,-20.892 1.334,-42.68 12.496,-60.892 0.087,-0.14 0.613,-0.215 0.492,0.012 -12.091,22.773 -11.883,48.153 -8.804,73.155 1.384,11.244 1.674,22.69 1.437,34.014 C 2.473,-10.148 4.053,1.566 -0.227,0.251 -0.487,0.171 -0.108,0.003 0,0"
                       style="fill:#5e491d;fill-opacity:1;fill-rule:nonzero;stroke:none"
                       id="path270" /></g><g
                     transform="translate(249.7979,487.6431)"
                     id="g272"><path
                       d="m 0,0 c -1.249,-8.328 -0.059,-17.032 0.317,-25.392 0.436,-9.714 -0.114,-19.379 -1.204,-29.036 -1.068,-9.474 -2.272,-18.935 -3.285,-28.416 -0.999,-9.351 -0.601,-18.744 -1.604,-28.073 -0.982,-9.138 -3.275,-18.068 -4.219,-27.219 -0.959,-9.297 -1.074,-18.747 -1.555,-28.083 -0.966,-18.804 -1.768,-37.635 -1.425,-56.468 0.002,-0.118 0.375,-0.191 0.377,-0.074 0.413,19.4 1.168,38.781 2.283,58.154 0.532,9.253 0.528,18.741 1.989,27.896 1.445,9.051 3.762,17.925 4.839,27.043 1.101,9.317 0.981,18.582 2.632,27.88 1.652,9.311 4.177,18.449 5.67,27.789 2.82,17.628 1.191,35.797 -1.571,53.361 C 3.098,0.292 0.167,1.115 0,0"
                       style="fill:#5e491d;fill-opacity:1;fill-rule:nonzero;stroke:none"
                       id="path274" /></g><g
                     transform="translate(261.3789,370.8057)"
                     id="g276"><path
                       d="m 0,0 c 1.658,7.908 2.872,15.892 4.266,23.847 1.407,8.033 3.868,15.657 4.507,23.846 1.275,16.303 -0.455,32.745 2.294,48.985 0.439,2.585 1.084,4.888 0.669,7.504 -0.117,0.74 -1.025,2.232 -1.376,2.858 -1.24,2.211 -1.928,4.359 -2.408,6.829 -1.09,5.616 -3.738,10.07 -5.582,15.354 -0.669,1.917 1.094,1.539 1.842,0.809 0.785,-0.766 1.448,-1.709 2.11,-2.585 1.099,-1.455 2.146,-2.602 3.518,-3.849 5.448,-4.953 11.865,-8.574 15.92,-14.923 0.18,-0.283 0.795,-0.466 1.094,-0.293 1.236,0.712 2.426,1.303 3.762,1.805 -0.343,0.143 -0.684,0.286 -1.026,0.429 C 29.325,101.443 24.766,92.33 21.817,83.764 18.226,73.331 14.011,63.329 9.829,53.14 5.831,43.396 3.996,32.262 1.397,22.06 -1.264,11.609 -3.079,1.026 -2.941,-9.78 c 10e-4,-0.118 0.373,-0.193 0.377,-0.074 0.364,10.739 2.192,21.283 4.766,31.698 2.54,10.275 4.656,21.197 8.45,31.075 3.711,9.662 8.016,19.007 11.486,28.788 3.218,9.071 8.194,18.871 8.594,28.604 0.018,0.433 -0.727,0.534 -1.026,0.429 -0.562,-0.198 -2.98,-1.685 -3.494,-0.836 -0.745,1.229 -1.745,2.411 -2.752,3.43 -2.789,2.824 -5.898,5.244 -9.002,7.706 -2.447,1.942 -4.801,3.906 -6.642,6.441 -0.971,1.339 -2.123,3.083 -3.581,3.963 -1.38,0.832 -3.988,1.107 -3.626,-1.497 0.326,-2.336 1.789,-4.655 2.597,-6.872 1.456,-3.999 2.057,-7.778 2.914,-11.932 0.817,-3.956 3.465,-6.197 2.636,-10.624 C 7.915,96.028 7.041,91.737 6.589,87.166 5.664,77.819 5.74,68.561 6.014,59.189 6.307,49.149 5.306,39.764 3.254,29.954 1.184,20.054 2.302,9.823 -0.096,0.026 -0.104,-0.008 -0.007,-0.033 0,0"
                       style="fill:#5e491d;fill-opacity:1;fill-rule:nonzero;stroke:none"
                       id="path278" /></g><g
                     transform="translate(272.6758,392.127)"
                     id="g280"><path
                       d="m 0,0 c 0.442,-8.127 -0.81,-15.836 -4.052,-23.246 -1.413,-3.229 -0.89,-7.617 -0.941,-11.043 -0.059,-3.903 -0.369,-7.804 -0.325,-11.71 0.178,-16.101 -2.313,-32.089 -1.85,-48.19 0.005,-0.2 0.633,-0.329 0.641,-0.126 0.66,15.963 2.947,31.719 5.587,47.456 0.622,3.709 0.688,7.52 0.798,11.27 0.109,3.708 0.685,7.832 0.319,11.511 -0.802,8.062 1.833,15.906 0.54,23.988 C 0.679,0.146 -0.017,0.296 0,0"
                       style="fill:#5e491d;fill-opacity:1;fill-rule:nonzero;stroke:none"
                       id="path282" /></g><g
                     transform="translate(121.4795,203.7451)"
                     id="g284"><path
                       d="m 0,0 c 0.068,-18.604 7.93,-36.537 15.589,-53.137 8.084,-17.518 16.109,-35.071 25.305,-52.045 9.592,-17.706 21.873,-33.687 31.669,-51.256 2.367,-4.245 4.803,-8.625 6.194,-13.288 1.036,-3.473 2.105,-6.917 3.427,-10.294 2.707,-6.909 6.884,-13.69 13.505,-17.39 0.458,-0.256 3.892,-0.76 2.781,0.569 -4.98,5.953 -8.837,11.293 -11.454,18.711 -1.172,3.319 -2.125,6.714 -3.147,10.081 -1.229,4.046 -3.874,8.043 -5.889,11.733 -9.415,17.238 -21.628,32.758 -31.659,49.628 C 36.341,-89.902 28.389,-72.12 19.254,-54.89 10.118,-37.654 1.022,-20.059 0.528,-0.066 0.524,0.107 -0.001,0.22 0,0"
                       style="fill:#5e491d;fill-opacity:1;fill-rule:nonzero;stroke:none"
                       id="path286" /></g><g
                     transform="translate(163.3872,133.0703)"
                     id="g288"><path
                       d="m 0,0 c 6.858,-14.09 14.571,-27.769 22.519,-41.268 1.759,-2.987 4.636,-6.395 5.229,-9.868 0.458,-2.682 2.184,-5.339 3.654,-7.585 2.226,-3.401 4.448,-6.774 6.177,-10.466 1.507,-3.219 1.563,-5.981 4.321,-8.341 0.747,-0.64 2.32,-1.128 3.167,-0.416 0.38,0.319 0.76,0.637 1.14,0.957 0.241,0.256 0.321,0.554 0.24,0.896 -1.233,6.43 -5.098,12.293 -8.883,17.509 -1.534,2.115 -3.346,4.436 -5.248,6.233 -3.472,3.283 -5.724,7.1 -8.218,11.117 C 15.72,-27.742 7.805,-13.977 0.281,0.006 0.235,0.091 -0.064,0.132 0,0"
                       style="fill:#5e491d;fill-opacity:1;fill-rule:nonzero;stroke:none"
                       id="path290" /></g><g
                     transform="translate(271.3086,159.4795)"
                     id="g292"><path
                       d="m 0,0 c 2.828,-11.087 7.051,-21.692 11.586,-32.177 2.452,-5.666 5.008,-11.288 7.505,-16.934 2.25,-5.088 6.115,-11.304 6.541,-16.868 0.408,-5.322 4.435,-10.868 6.722,-15.561 1.421,-2.921 2.829,-5.854 4.11,-8.84 0.31,-0.724 0.47,-1.557 1.004,-2.146 1.104,-1.219 0.595,-0.424 0.909,-0.259 -0.844,-0.444 1.032,-1.295 1.621,-0.986 2.435,1.279 -0.782,6.083 -1.981,8.582 -2.67,5.564 -5.366,11.158 -8.238,16.621 -5.63,10.705 -10.492,21.831 -15.548,32.859 C 8.924,-24.129 3.901,-12.391 0.566,-0.07 0.515,0.119 -0.053,0.21 0,0"
                       style="fill:#5e491d;fill-opacity:1;fill-rule:nonzero;stroke:none"
                       id="path294" /></g><g
                     transform="translate(298.7256,112.3467)"
                     id="g296"><path
                       d="m 0,0 c 4.897,-8.445 8.967,-18.633 11.605,-28.049 0.221,-0.787 1.522,-1.173 2.232,-1.112 0.371,0.032 0.742,0.063 1.113,0.096 0.393,0.034 0.815,0.081 0.992,0.485 l 0.126,0.29 c 0.221,0.502 -0.67,0.947 -0.974,1.095 -0.382,0.282 -0.763,0.564 -1.145,0.846 -0.218,0.26 -1.627,0.795 -1.529,0.083 -0.01,0.071 0.199,-1.07 0.167,-1.073 0.707,-0.293 1.414,-0.585 2.121,-0.877 C 8.645,-19.594 6.761,-8.63 0.492,0.012 0.399,0.139 -0.131,0.226 0,0"
                       style="fill:#5e491d;fill-opacity:1;fill-rule:nonzero;stroke:none"
                       id="path298" /></g><g
                     transform="translate(293.1689,269.6514)"
                     id="g300"><path
                       d="m 0,0 c -0.188,-12.39 -1.054,-24.761 -1.656,-37.135 -0.588,-12.078 -2.753,-24.326 -0.775,-36.306 4.007,-24.253 17.141,-46.025 23.458,-69.653 0.106,-0.396 1.324,-0.658 1.244,-0.156 -3.652,23.344 -15.355,44.47 -19.93,67.585 C -2.56,-50.908 0.342,-25.099 0.076,-0.015 0.075,0.01 0.001,0.023 0,0"
                       style="fill:#5e491d;fill-opacity:1;fill-rule:nonzero;stroke:none"
                       id="path302" /></g><g
                     transform="translate(206.5474,250.8604)"
                     id="g304"><path
                       d="m 0,0 c -0.972,-17.551 1.291,-35.011 4.673,-52.205 1.738,-8.831 4.262,-17.541 5.765,-26.41 1.541,-9.087 3.644,-17.972 6.088,-26.86 4.693,-17.064 11.731,-32.813 20.558,-48.146 9.11,-15.822 17.974,-31.85 24.647,-48.877 0.104,-0.268 0.967,-0.427 0.867,-0.109 -10.214,32.795 -30.731,61.461 -40.055,94.613 -4.916,17.479 -11.512,34.296 -15.637,52.002 -4.261,18.29 -7.18,37.055 -6.491,55.881 C 0.421,0.047 0.007,0.135 0,0"
                       style="fill:#5e491d;fill-opacity:1;fill-rule:nonzero;stroke:none"
                       id="path306" /></g><g
                     transform="translate(219.5532,237.6641)"
                     id="g308"><path
                       d="m 0,0 c -0.008,-9.239 1.41,-18.279 2.54,-27.422 1.213,-9.825 2.821,-19.625 5.763,-29.095 6.068,-19.521 13.318,-38.284 17.426,-58.387 0.05,-0.246 0.786,-0.403 0.754,-0.094 C 24.482,-95.94 18.09,-77.412 13.408,-58.907 8.457,-39.345 0.777,-20.486 0.34,-0.067 0.337,0.041 0,0.104 0,0"
                       style="fill:#5e491d;fill-opacity:1;fill-rule:nonzero;stroke:none"
                       id="path310" /></g><g
                     transform="translate(174.1738,281.1836)"
                     id="g312"><path
                       d="m 0,0 c 3.021,-3.564 2.325,-9.914 2.326,-14.215 0.002,-5.654 0.595,-11.249 0.95,-16.889 1.133,-18.011 2.272,-36.078 3.926,-54.049 1.542,-16.752 7.327,-32.16 13.204,-47.775 2.9,-7.704 5.983,-15.342 9.054,-22.979 3.465,-8.616 8.13,-16.73 11.823,-25.25 0.192,-0.444 1.719,-0.789 1.547,-0.194 -2.243,7.712 -4.221,15.525 -6.978,23.08 -3.026,8.29 -6.729,16.333 -9.76,24.629 -5.94,16.264 -9.859,33.935 -11.113,51.225 -1.398,19.277 -2.414,38.639 -4.53,57.853 C 9.633,-17.158 9.521,-2.373 0.864,0.422 0.659,0.488 -0.401,0.473 0,0"
                       style="fill:#5e491d;fill-opacity:1;fill-rule:nonzero;stroke:none"
                       id="path314" /></g><g
                     transform="translate(134.1558,235.7412)"
                     id="g316"><path
                       d="m 0,0 c 0.313,0.394 0.625,0.786 0.937,1.18 -1.102,0.374 -2.204,0.748 -3.307,1.122 0.228,-3.826 1.623,-7.539 2.524,-11.253 0.927,-3.821 1.492,-7.769 2.056,-11.657 1.164,-8.013 2.138,-15.983 4.446,-23.765 5.204,-17.545 13.801,-34.304 21.505,-50.84 0.208,-0.448 1.811,-0.833 1.622,-0.203 -5.16,17.228 -10.696,34.141 -14.513,51.741 C 12.029,-28.733 12.231,-9.227 0.948,2.372 -0.027,3.376 -3.564,2.96 -2.005,1.769 -1.689,1.248 -1.373,0.728 -1.057,0.208 -1.008,-0.095 -0.062,-0.364 0,0"
                       style="fill:#5e491d;fill-opacity:1;fill-rule:nonzero;stroke:none"
                       id="path318" /></g><g
                     transform="translate(245.1855,232.1719)"
                     id="g320"><path
                       d="m 0,0 c -1.201,-32.775 9.563,-64.974 17.762,-96.275 2.03,-7.749 3.981,-15.591 5.599,-23.44 1.83,-8.871 5.148,-17.165 8.758,-25.454 7.222,-16.574 16.072,-32.258 25.2,-47.835 0.217,-0.371 1.788,-0.646 1.567,-0.085 -12.649,31.916 -30.211,61.7 -39.455,94.975 C 10.57,-66.226 2.659,-33.379 1.094,-0.215 1.078,0.124 0.013,0.345 0,0"
                       style="fill:#5e491d;fill-opacity:1;fill-rule:nonzero;stroke:none"
                       id="path322" /></g><g
                     transform="translate(266.3311,217.374)"
                     id="g324"><path
                       d="m 0,0 c 0.04,-0.008 1.37,-8.445 1.632,-9.705 0.924,-4.454 1.329,-8.94 2.051,-13.414 2.88,-17.849 13.086,-33.919 19.025,-50.818 0.195,-0.554 2.005,-1.026 1.887,-0.236 -1.363,9.11 -4.378,18.121 -7.514,26.761 -3.082,8.493 -7.65,18.284 -8.38,27.358 -0.373,4.645 -2.263,9.436 -3.88,13.749 C 4.107,-4.401 2.711,0.316 0.146,0.498 0.046,0.505 -0.187,0.528 -0.252,0.417 -0.268,0.39 -0.283,0.363 -0.3,0.336 -0.402,0.163 -0.14,0.028 0,0"
                       style="fill:#5e491d;fill-opacity:1;fill-rule:nonzero;stroke:none"
                       id="path326" /></g><g
                     transform="translate(171.6631,513.7075)"
                     id="g328"><path
                       d="m 0,0 c -3.593,-5.863 -3.328,-12.544 -3.515,-19.198 -0.251,-8.957 -2.913,-17.826 -4.267,-26.665 -2.781,-18.17 -5.767,-38.028 -3.022,-56.377 0.068,-0.456 1.494,-0.856 1.585,-0.312 1.442,8.719 1.718,17.823 2.425,26.636 0.723,9.023 1.723,18.039 2.873,27.017 1.091,8.523 3.077,17.258 3.172,25.854 0.086,7.695 -1.658,15.459 1.404,22.821 C 0.741,-0.016 0.107,0.175 0,0"
                       style="fill:#5e491d;fill-opacity:1;fill-rule:nonzero;stroke:none"
                       id="path330" /></g><g
                     transform="translate(197.2813,495.1587)"
                     id="g332"><path
                       d="M 0,0 C 0.771,1.174 1.773,1.355 2.918,1.23 2.375,1.623 1.832,2.016 1.288,2.408 0.658,-7.005 -3.416,-15.214 -6.875,-23.85 c -3.902,-9.748 -6.388,-20.289 -8.842,-30.479 -4.892,-20.314 -6.952,-41.284 -5.877,-62.154 0.023,-0.439 1.406,-0.742 1.434,-0.282 1.312,21.277 5.435,42.117 10.629,62.763 2.552,10.142 5.215,20.404 8.886,30.206 3.024,8.072 7.07,16.865 4.801,25.64 C 3.935,2.701 2.548,2.891 1.844,2.803 1.414,2.749 0.984,2.691 0.554,2.639 0.309,2.609 0.07,2.434 0.116,2.166 0.208,1.618 -0.251,0.688 -0.473,0.162 -0.536,0.011 -0.081,-0.123 0,0"
                       style="fill:#5e491d;fill-opacity:1;fill-rule:nonzero;stroke:none"
                       id="path334" /></g><g
                     transform="translate(208.4976,454.854)"
                     id="g336"><path
                       d="m 0,0 c -5.453,-12.946 -7.322,-26.876 -9.023,-40.717 -1.846,-15.014 -4.197,-29.948 -5.517,-45.025 -1.305,-14.919 -1.12,-29.998 -1.984,-44.959 -0.856,-14.823 -1.494,-30.353 2.699,-44.767 0.161,-0.555 1.864,-0.997 1.811,-0.227 -1.043,15.269 -0.54,30.32 0.397,45.588 0.922,15.02 0.868,30.048 1.703,45.067 0.81,14.557 2.537,29.041 3.699,43.571 1.117,13.958 2.633,27.889 6.932,41.277 C 0.795,0.051 0.102,0.243 0,0"
                       style="fill:#5e491d;fill-opacity:1;fill-rule:nonzero;stroke:none"
                       id="path338" /></g><g
                     transform="translate(229.1094,509.8232)"
                     id="g340"><path
                       d="m 0,0 c -2.231,-29.7 -3.178,-59.492 -4.67,-89.236 -1.467,-29.218 -3.437,-58.961 -1.495,-88.201 0.026,-0.401 1.29,-0.687 1.32,-0.26 2.093,29.693 2.939,59.57 4.406,89.308 1.449,29.37 3.313,58.849 1.232,88.233 C 0.775,0.084 0.02,0.257 0,0"
                       style="fill:#5e491d;fill-opacity:1;fill-rule:nonzero;stroke:none"
                       id="path342" /></g><g
                     transform="translate(318.8604,514.7061)"
                     id="g344"><path
                       d="m 0,0 c -2.534,-10.241 -1.025,-22.237 -0.784,-32.717 0.293,-12.7 0.595,-25.384 -0.066,-38.079 -1.26,-24.24 -6.477,-48.564 -10.906,-72.387 -8.85,-47.603 -19.196,-95.115 -24.97,-143.228 -0.042,-0.346 0.882,-0.579 0.944,-0.252 8.964,47.527 20.089,94.607 29.022,142.142 4.486,23.87 9.36,48.157 10.686,72.446 0.634,11.629 0.399,23.322 -0.049,34.953 -0.222,5.774 -0.5,11.552 -0.826,17.32 C 2.687,-13.35 2.696,-6.551 1.245,-0.245 1.166,0.102 0.109,0.44 0,0"
                       style="fill:#5e491d;fill-opacity:1;fill-rule:nonzero;stroke:none"
                       id="path346" /></g><g
                     transform="translate(305.7002,501.1758)"
                     id="g348"><path
                       d="m 0,0 c -1.104,-23.27 -3.61,-46.265 -5.844,-69.438 -0.032,-0.334 0.857,-0.554 0.906,-0.242 3.627,22.803 6.871,46.345 5.958,69.48 C 1.007,0.115 0.016,0.323 0,0"
                       style="fill:#5e491d;fill-opacity:1;fill-rule:nonzero;stroke:none"
                       id="path350" /></g><g
                     transform="translate(142.6245,546.1431)"
                     id="g352"><path
                       d="m 0,0 c 2.595,0.217 -3.411,-8.089 -4.155,-9.072 -3.166,-4.177 -4.588,-9.553 -6.475,-14.416 -5.62,-14.474 -10.615,-29.173 -14.936,-44.087 -8.301,-28.649 -13.37,-58.391 -13.479,-88.266 -0.002,-0.409 1.072,-0.658 1.094,-0.293 2.098,34.129 8.714,67.515 18.854,100.153 2.581,8.308 5.421,16.536 8.332,24.733 2.436,6.859 4.359,15.391 8.581,21.346 1.763,2.487 4.86,6.169 4.879,9.384 C 2.705,1.145 0.479,0.864 -0.447,0.396 -0.766,0.235 -0.138,-0.012 0,0"
                       style="fill:#5e491d;fill-opacity:1;fill-rule:nonzero;stroke:none"
                       id="path354" /></g><g
                     transform="translate(110.3564,385.8193)"
                     id="g356"><path
                       d="m 0,0 c -5.905,-8.912 -2.248,-19.878 -2.014,-29.743 0.333,-14.005 0.513,-27.997 1.17,-41.995 1.208,-25.738 5.635,-51.693 20.409,-73.394 0.227,-0.334 1.81,-0.647 1.566,-0.085 -9.693,22.356 -14.732,45.184 -16.895,69.424 C 3.055,-62.559 2.335,-49.276 1.477,-36.018 0.729,-24.48 -3.69,-11.323 0.437,-0.149 0.49,-0.005 0.075,0.113 0,0"
                       style="fill:#5e491d;fill-opacity:1;fill-rule:nonzero;stroke:none"
                       id="path358" /></g><g
                     transform="translate(285.2168,324.6807)"
                     id="g360"><path
                       d="m 0,0 c -1.217,-2.631 -1.183,-5.852 -1.498,-8.706 -0.416,-3.772 -0.936,-7.544 -1.496,-11.297 -1.24,-8.307 -3.005,-16.555 -4.968,-24.718 -3.827,-15.912 -8.981,-31.38 -14.275,-46.848 -0.107,-0.312 0.754,-0.53 0.906,-0.243 7.636,14.463 12.679,30.388 16.7,46.199 2.075,8.157 3.728,16.397 4.93,24.728 0.894,6.197 2.68,14.699 0.381,20.752 C 0.606,0.06 0.11,0.237 0,0"
                       style="fill:#5e491d;fill-opacity:1;fill-rule:nonzero;stroke:none"
                       id="path362" /></g><g
                     id="g364"><g
                       id="g366" /><g
                       id="g368"><g
                         clip-path="url(#clipPath248)"
                         opacity="0.25"
                         id="g370"><g
                           transform="translate(222.6245,282.0508)"
                           id="g372"><path
                             d="m 0,0 c 13.224,-31.136 0.452,-70.636 -34.563,-78.847 4.39,5.409 8.952,10.282 7.16,17.682 -29.277,-37.404 -83.69,-59.479 -125.557,-24.461 16.974,-6.473 48.261,5.095 56.189,21.92 -6.276,-0.804 -12.237,-2.091 -18.369,-0.864 14.415,10.903 23.262,30.951 30.94,46.852 -9.816,-0.787 -14.553,-7.882 -22.557,-12.337 7.236,20.62 20.934,50.416 42.699,58.239 C -33.401,39.201 -9.914,23.34 0,0"
                             style="fill:#000000;fill-opacity:1;fill-rule:nonzero;stroke:none"
                             id="path374" /></g><g
                           transform="translate(220.9424,247.5254)"
                           id="g376"><path
                             d="m 0,0 c 3.023,-12.345 10.298,-23.708 20.394,-31.458 13.432,-10.313 26.19,-8.853 42.273,-6.973 -2.691,-0.315 -10.113,7.278 -11.183,9.783 40.299,-10.929 90.232,2.165 101.282,48.852 -8.545,-13.489 -36.662,-21.809 -51.099,-14.135 4.842,2.737 9.716,4.969 13.388,9.058 -15.888,0.093 -32.668,9.554 -46.444,16.708 7.327,4.612 14.398,2.108 22.377,3.184 C 75.041,45.73 49.716,59.502 30.274,53.557 2.89,45.18 -5.301,21.652 0,0"
                             style="fill:#000000;fill-opacity:1;fill-rule:nonzero;stroke:none"
                             id="path378" /></g></g></g></g></g></g></g></g></g></g></g><g
       id="g380"><g
         id="g382"
         clip-path="url(#clipPath384)"><g
           id="g388"
           transform="translate(308.1865,522.8618)"><path
             d="m 0,0 c -0.139,-0.443 -0.446,-0.708 -0.925,-0.798 -0.516,-0.048 0.015,-0.436 0.293,-0.428 1.91,0.057 7.896,0.909 7.213,-2.433 -0.426,-2.082 -2.143,-3.973 -3.435,-5.588 -2.587,-3.235 -5.748,-5.936 -8.456,-9.057 -4.635,-5.343 -8.849,-9.468 -15.11,-12.985 -6.636,-3.727 -13.768,-5.86 -21.268,-6.99 -16.403,-2.472 -33.296,0.112 -49.221,4.162 -14.115,3.59 -29.091,8.05 -40.657,17.234 -4.522,3.591 -8.53,8.609 -8.168,14.661 0.364,6.109 6.406,10.857 11.264,13.626 9.56,5.448 21.546,6.679 32.322,7.092 21.659,0.828 46.655,-2.409 61.855,-19.564 1.924,-2.173 3.759,-5.003 3.121,-8.014 -0.491,-2.319 -3.586,-3.918 -5.393,-4.97 -6.226,-3.623 -13.396,-5.872 -20.24,-7.98 -15.199,-4.681 -33.632,-8.559 -44.234,6.571 -3.372,4.813 -6.104,10.296 -1.847,15.329 4.253,5.028 11.961,6.994 18.225,7.488 8.224,0.65 15.047,-2.608 19.326,-9.616 2.755,-4.51 3.412,-9.823 -2.711,-11.511 -3.393,-0.935 -7.608,1.046 -8.997,4.242 -0.949,2.184 1.665,2.537 3.077,3.084 1.672,0.648 -1.813,2.187 -2.71,1.976 -1.446,-0.341 -2.854,-0.663 -4.325,-0.881 -0.337,-0.049 -0.822,-0.263 -0.907,-0.643 -1.752,-7.834 10.652,-10.541 16.027,-9.697 10.435,1.636 4.998,13.266 0.285,17.972 -9.823,9.808 -31.887,8.568 -40.239,-2.804 -4.084,-5.561 1.042,-12.97 4.592,-17.394 4.9,-6.103 12.584,-9.396 20.301,-9.78 9.581,-0.476 18.854,2.263 27.902,5.108 7.548,2.373 16.436,4.933 22.5,10.269 5.579,4.909 -2.099,12.267 -5.77,15.511 -6.554,5.794 -14.588,10.244 -22.994,12.633 -19.217,5.461 -42.02,6.033 -61.264,0.54 -8.349,-2.384 -17.647,-7.187 -20.743,-15.863 -3.252,-9.115 6.773,-17.015 13.271,-21.237 10.544,-6.851 23.252,-10.369 35.289,-13.54 13.269,-3.496 26.964,-5.549 40.702,-5.259 10.169,0.215 20.221,2.15 29.451,6.472 4.294,2.011 8.455,4.44 12.028,7.568 3.21,2.813 5.716,6.376 8.699,9.424 1.772,1.811 11.968,10.835 9.401,14.149 -0.861,1.112 -2.191,1.34 -3.571,1.34 C 3.218,-0.563 2.478,-0.58 1.738,-0.63 1.576,-0.637 -0.944,-1.259 0.065,-1.152 0.455,-1.11 0.566,-0.475 0.717,-0.192 0.825,0.012 0.134,0.239 0,0"
             style="fill:#5e491d;fill-opacity:1;fill-rule:nonzero;stroke:none"
             id="path390" /></g></g></g><g
       id="g392"><g
         id="g394"
         clip-path="url(#clipPath396)"><g
           id="g400"
           transform="translate(263.1895,498.979)"><path
             d="M 0,0 8.29,-26.532 5.398,-71.186 c 6.173,16.516 11.648,33.429 15.571,50.911 L 0,0 z"
             style="fill:#9e8c5d;fill-opacity:1;fill-rule:nonzero;stroke:none"
             id="path402" /></g></g></g><g
       id="g404"><g
         id="g406"><g
           id="g412"><g
             id="g414"><path
               d="m 268.588,427.793 -1.18,-18.214 21.785,64.257 -5.035,4.868 c -3.922,-17.482 -9.397,-34.396 -15.57,-50.911"
               style="fill:url(#linearGradient416);stroke:none"
               id="path422" /></g></g></g></g><g
       id="g424"><g
         id="g426"><g
           id="g432"><g
             id="g434"><path
               d="m 152.952,329.833 c -24.23,-6.325 -41.891,-37.129 -51.695,-58.666 l 0,0 c 9.063,4.03 14.861,11.221 25.523,11.119 l 0,0 c -9.823,-16.404 -21.309,-37.165 -37.912,-47.527 l 0,0 c 6.493,-1.915 13.046,-1.108 19.892,-0.85 l 0,0 C 98.579,216.535 63.717,207.096 46.04,215.722 l 0,0 c 41.752,-41.824 102.575,-23.298 137.776,14.199 l 0,0 c 1.214,-8.153 -4.18,-12.967 -9.437,-18.373 l 0,0 c 38.557,5.459 56.163,46.815 44.92,81.677 l 0,0 c -7.009,21.736 -24.648,38.805 -50.028,38.803 l 0,0 c -5.131,0 -10.58,-0.697 -16.319,-2.195"
               style="fill:url(#linearGradient436);stroke:none"
               id="path444" /></g></g></g></g><g
       id="g446"><g
         id="g448"><g
           id="g454"><g
             id="g456"><path
               d="m 248.166,314.094 c -27.621,-7.567 -36.502,-30.841 -31.842,-52.641 l 0,0 c 2.657,-12.428 9.595,-24.001 19.457,-32.046 l 0,0 c 13.122,-10.704 25.918,-9.62 42.049,-8.216 l 0,0 c -2.699,-0.236 -9.893,7.572 -10.888,10.108 l 0,0 c 39.958,-12.115 90.255,-0.499 102.677,45.842 l 0,0 c -8.939,-13.23 -37.29,-20.718 -51.493,-12.62 l 0,0 c 4.92,2.591 9.857,4.681 13.649,8.658 l 0,0 c -15.877,0.562 -32.372,10.514 -45.931,18.072 l 0,0 c 4.976,2.93 9.743,2.701 14.743,2.47 l 0,0 c 2.497,-0.115 5.051,-0.229 7.719,0.05 l 0,0 c -13.315,9.527 -33.374,21.474 -51.147,21.475 l 0,0 c -3.083,0.001 -6.095,-0.359 -8.993,-1.152"
               style="fill:url(#linearGradient458);stroke:none"
               id="path466" /></g></g></g></g></g></svg>