<?xml version="1.0" encoding="UTF-8" standalone="no"?>
<!-- Created with Inkscape (http://www.inkscape.org/) -->

<svg
   xmlns:dc="http://purl.org/dc/elements/1.1/"
   xmlns:cc="http://creativecommons.org/ns#"
   xmlns:rdf="http://www.w3.org/1999/02/22-rdf-syntax-ns#"
   xmlns:svg="http://www.w3.org/2000/svg"
   xmlns="http://www.w3.org/2000/svg"
   xmlns:sodipodi="http://sodipodi.sourceforge.net/DTD/sodipodi-0.dtd"
   xmlns:inkscape="http://www.inkscape.org/namespaces/inkscape"
   id="svg2"
   version="1.1"
   inkscape:version="0.48.4 r9939"
   width="436.00864"
   height="534.70001"
   xml:space="preserve"
   sodipodi:docname="puppet.svg"><metadata
     id="metadata8"><rdf:RDF><cc:Work
         rdf:about=""><dc:format>image/svg+xml</dc:format><dc:type
           rdf:resource="http://purl.org/dc/dcmitype/StillImage" /><dc:title></dc:title></cc:Work></rdf:RDF></metadata><defs
     id="defs6"><clipPath
       clipPathUnits="userSpaceOnUse"
       id="clipPath16"><path
         d="M 0,800 800,800 800,0 0,0 0,800 z"
         id="path18"
         inkscape:connector-curvature="0" /></clipPath></defs><sodipodi:namedview
     pagecolor="#ffffff"
     bordercolor="#666666"
     borderopacity="1"
     objecttolerance="10"
     gridtolerance="10"
     guidetolerance="10"
     inkscape:pageopacity="0"
     inkscape:pageshadow="2"
     inkscape:window-width="1055"
     inkscape:window-height="748"
     id="namedview4"
     showgrid="false"
     inkscape:zoom="0.472"
     inkscape:cx="197.55077"
     inkscape:cy="277.50364"
     inkscape:window-x="0"
     inkscape:window-y="0"
     inkscape:window-maximized="0"
     inkscape:current-layer="g10"
     fit-margin-top="0"
     fit-margin-left="0"
     fit-margin-right="0"
     fit-margin-bottom="0" /><g
     id="g10"
     inkscape:groupmode="layer"
     inkscape:label="PL_logo_vertical_RGB"
     transform="matrix(1.25,0,0,-1.25,-304.56787,841.94213)"><g
       id="g20"
       transform="translate(365.5347,575.8506)"><path
         d="m 0,0 -105.002,-181.655 c -0.821,-1.416 -1.49,-2.922 -1.973,-4.466 l -0.372,-1.194 0.525,-1.144 8.281,-17.986 0.537,-1.169 1.204,-0.484 c 1.199,-0.482 2.37,-0.774 3.356,-0.991 l 2.318,-0.515 1.197,2.041 6.708,11.422 4.329,7.65 L 26.999,-5.081 29.81,0 0,0 z"
         style="fill:#2f2b6e;fill-opacity:1;fill-rule:nonzero;stroke:none"
         id="path22"
         inkscape:connector-curvature="0" /></g><g
       id="g24"
       transform="translate(430.5674,609.7285)"><path
         d="m 0,0 -4.795,-32.797 0,-10.94 95.134,-164.775 30.049,0 L 0,0 z"
         style="fill:#7d65ab;fill-opacity:1;fill-rule:nonzero;stroke:none"
         id="path26"
         inkscape:connector-curvature="0" /></g><g
       id="g28"
       transform="translate(557.3047,388.4717)"><path
         d="m 0,0 c -0.114,0.457 -0.261,0.89 -0.413,1.328 l -0.108,0.311 -0.75,2.211 -2.332,0 -21.975,-0.082 -232.135,0 c -4.011,-6.729 -10.899,-18.343 -15.45,-26.024 l 254.732,0 0.006,0 c 2.98,0.006 5.823,0.591 8.46,1.754 l 1.099,0.476 0.527,1.08 8.108,16.766 0.498,1.049 L 0,0 z"
         style="fill:#f0a72e;fill-opacity:1;fill-rule:nonzero;stroke:none"
         id="path30"
         inkscape:connector-curvature="0" /></g><g
       id="g32"
       transform="translate(453.4775,540.7969)"><path
         d="m 0,0 -5.464,5.063 -21.138,19.592 -1.042,0.968 0,1.423 0,98.032 0,3.253 3.252,0 21.139,0 3.253,0 0,-3.253 L 0,7.451 0,0 z"
         style="fill:#7d65ab;fill-opacity:1;fill-rule:nonzero;stroke:none"
         id="path34"
         inkscape:connector-curvature="0" /></g><g
       id="g36"
       transform="translate(394.4609,629.7041)"><path
         d="m 0,0 0,32.193 -16.422,0 0,-13.532 L 0,0 z"
         style="fill:#7d65ab;fill-opacity:1;fill-rule:nonzero;stroke:none"
         id="path38"
         inkscape:connector-curvature="0" /></g><g
       id="g40"
       transform="translate(355.7534,673.5537)"><path
         d="m 0,0 22.622,-25.706 73.324,0 0.908,1.767 L 110.746,0 0,0 z"
         style="fill:#7d65ab;fill-opacity:1;fill-rule:nonzero;stroke:none"
         id="path42"
         inkscape:connector-curvature="0" /></g><g
       id="g44"
       transform="translate(396.2197,428.8789)"><path
         d="m 0,0 c 0,0 -11.714,-8.686 -19.892,-6.29 0,0 40.421,-40.554 82.618,-1.602 0,0 14.13,16.361 13.465,28.261 l -5.534,1.505 c 0,0 -7.716,-38.323 -48.207,-33.577 0,0 -10.248,2.281 -22.45,11.703"
         style="fill:#f0a72e;fill-opacity:1;fill-rule:nonzero;stroke:none"
         id="path46"
         inkscape:connector-curvature="0" /></g><g
       id="g48"
       transform="translate(384.0654,482.9023)"><path
         d="m 0,0 c 0,0 -1.323,14.523 4.989,20.253 0,0 -55.68,-13.367 -44.411,-69.683 0,0 6.604,-20.591 17.103,-26.22 l 4.176,3.933 c 0,0 -28.692,26.55 -3.553,58.648 0,0 7.284,7.56 21.696,13.069"
         style="fill:#2f2b6e;fill-opacity:1;fill-rule:nonzero;stroke:none"
         id="path50"
         inkscape:connector-curvature="0" /></g><g
       id="g52"
       transform="translate(437.5547,467.1377)"><path
         d="m 0,0 c 0,0 13.439,-5.679 15.536,-13.944 0,0 14.42,55.42 -40.554,71.996 0,0 -21.279,3.869 -31.19,-2.751 l 1.512,-5.533 c 0,0 36.927,12.807 53.402,-24.48 0,0 3.233,-9.981 1.294,-25.288"
         style="fill:#7d65ab;fill-opacity:1;fill-rule:nonzero;stroke:none"
         id="path54"
         inkscape:connector-curvature="0" /></g><g
       id="g56"
       transform="translate(417.4766,487.2988)"><path
         d="m 0,0 c -4.794,-5.356 -13.014,-5.814 -18.369,-1.029 -5.356,4.789 -5.823,13.023 -1.032,18.373 4.794,5.349 13.016,5.807 18.372,1.029 C 4.33,13.583 4.781,5.361 0,0"
         style="fill:#7d65ab;fill-opacity:1;fill-rule:nonzero;stroke:none"
         id="path58"
         inkscape:connector-curvature="0" /></g><g
       id="g60"
       transform="translate(383.3271,434.2734)"><path
         d="m 0,0 c -4.787,-5.363 -13.007,-5.826 -18.359,-1.036 -5.36,4.797 -5.819,13.012 -1.027,18.368 4.783,5.356 13.007,5.826 18.368,1.029 C 4.332,13.576 4.788,5.35 0,0"
         style="fill:#2f2b6e;fill-opacity:1;fill-rule:nonzero;stroke:none"
         id="path62"
         inkscape:connector-curvature="0" /></g><g
       id="g64"
       transform="translate(444.9707,431.751)"><path
         d="m 0,0 c -4.784,-5.35 -13.002,-5.819 -18.354,-1.036 -5.364,4.797 -5.824,13.018 -1.037,18.374 4.791,5.356 13.012,5.819 18.374,1.029 C 4.34,13.577 4.786,5.348 0,0"
         style="fill:#f0a72e;fill-opacity:1;fill-rule:nonzero;stroke:none"
         id="path66"
         inkscape:connector-curvature="0" /></g><g
       id="g68"
       transform="translate(259.7793,288.2217)"><path
         d="m 0,0 c 4.229,-0.926 9.648,-1.719 14.274,-1.719 5.816,0 8.063,2.777 8.063,8.592 l 0,22.733 c 0,5.288 -1.983,8.195 -7.93,8.195 C 9.12,37.801 3.437,35.157 0,31.985 L 0,0 z m 38.462,7.27 c 0,-14.275 -6.344,-22.734 -21.28,-22.734 -5.683,0 -12.16,0.793 -17.182,1.85 l 0,-26.567 -16.125,-2.247 0,92.653 12.821,0 1.586,-5.419 c 5.683,4.097 12.292,6.741 20.354,6.741 12.953,0 19.826,-7.666 19.826,-22.337 l 0,-21.94 z"
         style="fill:#302a6e;fill-opacity:1;fill-rule:nonzero;stroke:none"
         id="path70"
         inkscape:connector-curvature="0" /></g><g
       id="g72"
       transform="translate(321.6353,338.4463)"><path
         d="m 0,0 0,-44.938 c 0,-3.436 1.454,-5.155 5.154,-5.155 3.966,0 10.971,2.379 16.786,5.419 l 0,44.674 16.125,0 0,-64.367 -12.292,0 -1.586,5.419 c -8.062,-3.965 -18.239,-6.74 -25.773,-6.74 -10.706,0 -14.539,7.533 -14.539,19.032 L -16.125,0 0,0 z"
         style="fill:#302a6e;fill-opacity:1;fill-rule:nonzero;stroke:none"
         id="path74"
         inkscape:connector-curvature="0" /></g><g
       id="g76"
       transform="translate(384.9531,290.5957)"><path
         d="m 0,0 c 4.229,-0.926 9.648,-1.719 14.274,-1.719 5.816,0 8.063,2.777 8.063,8.592 l 0,22.733 c 0,5.288 -1.983,8.195 -7.93,8.195 C 9.12,37.801 3.437,35.157 0,31.985 L 0,0 z m 38.462,7.27 c 0,-14.275 -6.344,-22.734 -21.279,-22.734 -5.684,0 -12.161,0.793 -17.183,1.85 l 0,-26.567 -16.125,-2.247 0,92.653 12.821,0 1.586,-5.419 c 5.683,4.097 12.292,6.741 20.354,6.741 12.953,0 19.826,-7.666 19.826,-22.337 l 0,-21.94 z"
         style="fill:#302a6e;fill-opacity:1;fill-rule:nonzero;stroke:none"
         id="path78"
         inkscape:connector-curvature="0" /></g><g
       id="g80"
       transform="translate(447.4697,290.5957)"><path
         d="m 0,0 c 4.229,-0.926 9.648,-1.719 14.274,-1.719 5.816,0 8.063,2.777 8.063,8.592 l 0,22.733 c 0,5.288 -1.983,8.195 -7.931,8.195 C 9.12,37.801 3.437,35.157 0,31.985 L 0,0 z m 38.462,7.27 c 0,-14.275 -6.344,-22.734 -21.279,-22.734 -5.684,0 -12.161,0.793 -17.183,1.85 l 0,-26.567 -16.125,-2.247 0,92.653 12.82,0 1.587,-5.419 c 5.683,4.097 12.291,6.741 20.354,6.741 12.953,0 19.826,-7.666 19.826,-22.337 l 0,-21.94 z"
         style="fill:#302a6e;fill-opacity:1;fill-rule:nonzero;stroke:none"
         id="path82"
         inkscape:connector-curvature="0" /></g><g
       id="g84"
       transform="translate(509.7217,315.4434)"><path
         d="m 0,0 20.487,0 0,3.173 c 0,6.079 -1.85,10.308 -9.781,10.308 C 2.776,13.481 0,9.252 0,3.173 L 0,0 z m 12.557,-27.095 c 6.212,0 12.688,0.925 19.693,3.04 l 2.512,-12.16 c -7.27,-2.775 -15.993,-4.097 -23.659,-4.097 -20.222,0 -27.227,9.384 -27.227,24.848 l 0,17.051 c 0,13.613 6.079,25.112 26.698,25.112 20.619,0 25.245,-12.027 25.245,-25.906 l 0,-13.745 -35.819,0 0,-3.305 c 0,-7.798 2.776,-10.838 12.557,-10.838"
         style="fill:#302a6e;fill-opacity:1;fill-rule:nonzero;stroke:none"
         id="path86"
         inkscape:connector-curvature="0" /></g><g
       id="g88"
       transform="translate(591.668,277.6426)"><path
         d="m 0,0 c -3.437,-1.454 -10.045,-2.511 -14.143,-2.511 -11.762,0 -17.711,5.551 -17.711,17.05 l 0,35.818 -9.648,0 0,12.821 9.648,0 0,15.993 16.125,2.247 0,-18.24 16.522,0 -1.058,-12.821 -15.464,0 0,-33.704 c 0,-3.436 1.586,-5.682 5.816,-5.682 2.38,0 5.287,0.528 8.062,1.321 L 0,0 z"
         style="fill:#302a6e;fill-opacity:1;fill-rule:nonzero;stroke:none"
         id="path90"
         inkscape:connector-curvature="0" /></g><g
       id="g108"
       transform="translate(583.9072,260.7061)"><path
         d="m 0,0 -1.79,0 0,-2.935 1.79,0 c 0.896,0 1.194,0.348 1.194,0.946 l 0,0.993 C 1.194,-0.199 0.847,0 0,0 m -0.099,-4.226 -1.691,0 0,-2.736 -1.392,0 0,8.254 3.232,0 c 1.841,0 2.586,-0.795 2.586,-2.188 l 0,-1.144 c 0,-0.795 -0.247,-1.441 -1.192,-1.939 l 2.187,-2.983 -1.692,0 -2.038,2.736 z m -0.298,-5.82 c 4.526,0 6.861,3.182 6.861,7.013 0,3.826 -2.335,7.011 -6.861,7.011 -4.575,0 -6.912,-3.185 -6.912,-7.011 0,-3.831 2.337,-7.013 6.912,-7.013 m 0,16.012 c 5.519,0 8.951,-4.029 8.951,-8.999 0,-4.972 -3.432,-9.001 -8.951,-9.001 -5.518,0 -9,4.029 -9,9.001 0,4.97 3.482,8.999 9,8.999"
         style="fill:#302a6e;fill-opacity:1;fill-rule:nonzero;stroke:none"
         id="path110"
         inkscape:connector-curvature="0" /></g></g></svg>